/'
 ' Licensed to the Apache Software Foundation (ASF) under one
 ' or more contributor license agreements.  See the NOTICE file
 ' distributed with this work for additional information
 ' regarding copyright ownership.  The ASF licenses this file
 ' to you under the Apache License, Version 2.0 (the
 ' "License"); you may not use this file except in compliance
 ' with the License.  You may obtain a copy of the License at
 '
 '    http://www.apache.org/licenses/LICENSE-2.0
 '
 ' Unless required by applicable law or agreed to in writing, software
 ' distributed under the License is distributed on an "AS IS" BASIS,
 ' WITHOUT WARRANTIES OR CONDITIONS OF ANY KIND, either express or implied.
 ' See the License for the specific language governing permissions and
 ' limitations under the License.
 '/

@startuml
'https://plantuml.com/class-diagram

title Per-component Leader Election that existed in Apache Flink 1.15-

interface LeaderContender {
    void grantLeadership(UUID leaderSessionID)
    void revokeLeadership()
}
hide LeaderContender fields
note right: LeaderContender is implemented by any\nclass that utilizes LeaderElectionService

interface LeaderElectionDriver {
    void writeLeaderInformation(LeaderInformation)
    boolean hasLeadership()
    void close()
}
hide LeaderElectionDriver fields

interface LeaderElectionEventHandler {
    void onGrantLeadership(newLeaderSessionId)
    void onRevokeLeadership()
    void onLeaderInformationChange(leaderInformation)
}
hide LeaderElectionEventHandler fields

interface LeaderElectionService {
    void start(LeaderContender)
    void stop()
    void confirmLeadership(leaderSessionID, leaderAddress)
    boolean hasLeadership(leaderSessionId)
}
hide LeaderElectionService fields

class DefaultLeaderElectionService {
    leaderElectionDriver: LeaderElectionDriver
    leaderContender: LeaderContender
}
hide DefaultLeaderElectionService methods

class ZooKeeperLeaderElectionDriver implements LeaderElectionDriver
hide ZooKeeperLeaderElectionDriver members

class KubernetesLeaderElectionDriver implements LeaderElectionDriver
hide KubernetesLeaderElectionDriver members

class DefaultLeaderElectionService implements LeaderElectionService, LeaderElectionEventHandler

LeaderElectionDriver ---> LeaderElectionEventHandler : uses
DefaultLeaderElectionService --> LeaderElectionDriver : uses
DefaultLeaderElectionService --> LeaderContender : uses
LeaderContender --> LeaderElectionService : uses

@enduml