/'
 ' Licensed to the Apache Software Foundation (ASF) under one
 ' or more contributor license agreements.  See the NOTICE file
 ' distributed with this work for additional information
 ' regarding copyright ownership.  The ASF licenses this file
 ' to you under the Apache License, Version 2.0 (the
 ' "License"); you may not use this file except in compliance
 ' with the License.  You may obtain a copy of the License at
 '
 '    http://www.apache.org/licenses/LICENSE-2.0
 '
 ' Unless required by applicable law or agreed to in writing, software
 ' distributed under the License is distributed on an "AS IS" BASIS,
 ' WITHOUT WARRANTIES OR CONDITIONS OF ANY KIND, either express or implied.
 ' See the License for the specific language governing permissions and
 ' limitations under the License.
 '/

@startuml
'https://plantuml.com/class-diagram

title Proposed refactoring (Version 2) of the multi-component Leader Election that was introduced in Apache Flink 1.15+ (FLINK-26522)

interface LeaderContender {
    void grantLeadership(leaderSessionID)
    void revokeLeadership()
    String getDescription()
}
hide LeaderContender fields
note right: <b>LeaderContender.getDescription()</b>\n is used to replace the componentId

interface LeaderElectionDriver {
    void writeLeaderInformation(LeaderInformation)
    boolean hasLeadership()
    void close()
}
hide LeaderElectionDriver fields

interface LeaderElectionEventHandler {
    void onGrantLeadership(newLeaderSessionId)
    void onRevokeLeadership()
    void onLeaderInformationChange(leaderInformation)
}
hide LeaderElectionEventHandler fields

interface LeaderElectionService {
    void start()
    void close()
}
hide LeaderElectionService fields
note top of LeaderElectionService
    <b>LeaderElectionService</b> is handling the LeaderElectionDriver lifecycle.
    It is created and owned by the HighAvailabilityServices.
end note
note bottom of LeaderElectionService
    We could even make this a generic interface <b>ServiceAsync</b>
    that extends <b>AutoCloseableAsync</b> since it's a quite common
    pattern.
end note

interface LeaderElectionRegistry {
    LeaderElection register(LeaderContender)
}
hide LeaderElectionRegistry fields

interface LeaderElection {
    void confirmLeadership(leaderSessionID, leaderAddress)
    boolean hasLeadership(leaderSessionId)
    void close()
}
hide LeaderElection fields
note top of LeaderElection
    <b>close()</b> is used to unregister the LeaderContender
    from the LeaderElectionRegistry. It is equivalent to the
    legacy <b>DefaultLeaderService.stop()</b> method.
    LeaderElection could extend AutoCloseableAsync.
end note

class DefaultLeaderElection implements LeaderElection {
    contender: LeaderContender
    registry: LeaderElectionRegistry
}
hide DefaultLeaderElection methods

class DefaultLeaderElectionService {
    leaderElectionDriver: LeaderElectionDriver
    leaderContenders: Collection<LeaderContender>
}
hide DefaultLeaderElectionService methods
note bottom of DefaultLeaderElectionService
    We should rename this to something like
    <b>MultiContenderLeaderElectionService</b>.
end note

class ZooKeeperLeaderElectionDriver implements LeaderElectionDriver
hide ZooKeeperLeaderElectionDriver members

class KubernetesLeaderElectionDriver implements LeaderElectionDriver
hide KubernetesLeaderElectionDriver members

class DefaultLeaderElectionService implements LeaderElectionRegistry, LeaderElectionService, LeaderElectionEventHandler

DefaultLeaderElectionService --> DefaultLeaderElection : creates
LeaderContender --> LeaderElection : uses
LeaderContender --> LeaderElectionRegistry : uses to create\nLeaderElection
DefaultLeaderElection --> DefaultLeaderElectionService: unregisters

LeaderElectionDriver --> LeaderElectionEventHandler : uses
DefaultLeaderElectionService --> LeaderElectionDriver : uses
DefaultLeaderElectionService --> LeaderContender : uses

@enduml